<svg xmlns="http://www.w3.org/2000/svg" version="1.1" xmlns:xlink="http://www.w3.org/1999/xlink" xmlns:svgjs="http://svgjs.dev/svgjs" width="1500" height="405" viewBox="0 0 1500 405"><g transform="matrix(1,0,0,1,-0.9090909090909918,-1.7955582326057424)"><svg viewBox="0 0 396 107" data-background-color="#000000" preserveAspectRatio="xMidYMid meet" height="405" width="1500" xmlns="http://www.w3.org/2000/svg" xmlns:xlink="http://www.w3.org/1999/xlink"><g id="tight-bounds" transform="matrix(1,0,0,1,0.2400000000000091,0.4743820515773223)"><svg viewBox="0 0 395.52 106.05123589684534" height="106.05123589684534" width="395.52"><g><svg viewBox="0 0 712.0637188804405 190.92647002572454" height="106.05123589684534" width="395.52"><g><rect width="11.564618426670162" height="190.92647002572454" x="274.70523022688525" y="0" fill="#fcf2f6" opacity="1" stroke-width="0" stroke="transparent" fill-opacity="1" class="rect-yte-0" data-fill-palette-color="primary" rx="1%" id="yte-0" data-palette-color="#fcf2f6"></rect></g><g transform="matrix(1,0,0,1,316.5437188804407,0.4749414677256709)"><svg viewBox="0 0 395.52 189.9765870902732" height="189.9765870902732" width="395.52"><g id="textblocktransform"><svg viewBox="0 0 395.52 189.9765870902732" height="189.9765870902732" width="395.52" id="textblock"><g><svg viewBox="0 0 395.52 128.23781420765025" height="128.23781420765025" width="395.52"><g transform="matrix(1,0,0,1,0,0)"><svg width="395.52" viewBox="2.1 -35.3 109.79 35.599999999999994" height="128.23781420765025" data-palette-color="#fcf2f6"><path d="M14.65 0.3L14.65 0.3Q8.6 0.3 5.35-4.1 2.1-8.5 2.1-17.6L2.1-17.6Q2.1-26.7 5.35-31 8.6-35.3 14.65-35.3L14.65-35.3Q20.7-35.3 23.93-31 27.15-26.7 27.15-17.6L27.15-17.6Q27.15-8.5 23.93-4.1 20.7 0.3 14.65 0.3ZM14.65-3.5L14.65-3.5Q18.75-3.5 20.68-6.93 22.6-10.35 22.6-17.6L22.6-17.6Q22.6-24.75 20.68-28.13 18.75-31.5 14.65-31.5L14.65-31.5Q10.55-31.5 8.6-28.13 6.65-24.75 6.65-17.6L6.65-17.6Q6.65-10.35 8.6-6.93 10.55-3.5 14.65-3.5ZM35.75 0.1L35.35 0.1Q34.25 0.1 33.77-0.2 33.3-0.5 33.3-1L33.3-1 33.3-34Q33.3-34.55 33.77-34.83 34.25-35.1 35.35-35.1L35.35-35.1 36.45-35.1Q38.6-35.1 38.95-34.2L38.95-34.2 45.15-18.55Q45.4-17.95 45.62-17.35 45.85-16.75 45.95-16.15L45.95-16.15Q46.05-16.75 46.3-17.35 46.55-17.95 46.75-18.55L46.75-18.55 52.95-34.2Q53.35-35.1 55.45-35.1L55.45-35.1 56.55-35.1Q57.7-35.1 58.15-34.83 58.6-34.55 58.6-34L58.6-34 58.6-1Q58.6-0.5 58.15-0.2 57.7 0.1 56.55 0.1L56.55 0.1 56.15 0.1Q55.05 0.1 54.57-0.2 54.1-0.5 54.1-1L54.1-1 54.1-22.9Q54.1-23.8 54.17-24.68 54.25-25.55 54.35-26.45L54.35-26.45 54.15-26.55Q53.8-25.7 53.52-24.85 53.25-24 52.85-23.1L52.85-23.1 48.8-13Q48.55-12.35 47.92-12.15 47.3-11.95 46.3-11.95L46.3-11.95 45.6-11.95Q44.65-11.95 44-12.15 43.35-12.35 43.1-13L43.1-13 39.05-23.1Q38.7-24 38.4-24.85 38.1-25.7 37.75-26.55L37.75-26.55 37.55-26.45Q37.65-25.55 37.72-24.68 37.8-23.8 37.8-22.9L37.8-22.9 37.8-1Q37.8-0.5 37.35-0.2 36.9 0.1 35.75 0.1L35.75 0.1ZM65.55 0.1L64.75 0.1Q62.9 0.1 62.9-0.75L62.9-0.75Q62.9-0.9 62.92-1.05 62.95-1.2 63-1.4L63-1.4 72.15-34.15Q72.45-35.1 74.15-35.1L74.15-35.1 75.75-35.1Q77.45-35.1 77.75-34.15L77.75-34.15 86.85-1.4Q86.9-1.2 86.95-1.05 87-0.9 87-0.75L87-0.75Q87 0.1 85.15 0.1L85.15 0.1 84.3 0.1Q83.6 0.1 83.1-0.08 82.6-0.25 82.5-0.7L82.5-0.7 80.3-9 69.6-9 67.35-0.7Q67.25-0.25 66.75-0.08 66.25 0.1 65.55 0.1L65.55 0.1ZM74.25-26.4L74.25-26.4 70.55-12.7 79.3-12.7 75.65-26.4Q75.45-27.1 75.32-27.93 75.2-28.75 75.1-29.45L75.1-29.45 74.85-29.45Q74.7-28.75 74.57-27.93 74.45-27.1 74.25-26.4ZM93.74 0.1L93.34 0.1Q92.24 0.1 91.77-0.2 91.29-0.5 91.29-1L91.29-1 91.29-33.5Q91.29-35 92.84-35L92.84-35 100.04-35Q109.54-35 109.54-24.95L109.54-24.95Q109.54-22.05 108.49-19.88 107.44-17.7 104.79-17L104.79-17 104.79-16.8Q106.09-16.15 106.94-15 107.79-13.85 108.44-11.85L108.44-11.85 111.59-2Q111.69-1.6 111.79-1.23 111.89-0.85 111.89-0.65L111.89-0.65Q111.89-0.15 111.44-0.03 110.99 0.1 109.99 0.1L109.99 0.1 109.24 0.1Q107.59 0.1 107.29-0.9L107.29-0.9 104.24-10.5Q103.34-13.4 102.22-14.4 101.09-15.4 98.94-15.4L98.94-15.4 95.79-15.4 95.79-1Q95.79-0.5 95.34-0.2 94.89 0.1 93.74 0.1L93.74 0.1ZM95.79-31.2L95.79-19.2 100.19-19.2Q102.74-19.2 103.87-20.55 104.99-21.9 104.99-24.95L104.99-24.95Q104.99-28.25 103.87-29.73 102.74-31.2 100.19-31.2L100.19-31.2 95.79-31.2Z" opacity="1" transform="matrix(1,0,0,1,0,0)" fill="#fcf2f6" class="wordmark-text-0" data-fill-palette-color="primary" id="text-0"></path></svg></g></svg></g><g transform="matrix(1,0,0,1,0,158.51168443453548)"><svg viewBox="0 0 232.209792 31.464902655737703" height="31.464902655737703" width="232.209792"><g transform="matrix(1,0,0,1,0,0)"><svg width="232.209792" viewBox="4.27 -37.99 285.92 38.75" height="31.464902655737703" data-palette-color="#cfc6cc"><path d="M4.27-32.79L5.22-37.01 17.21-37.01 16.26-32.79 13.28-32.79 17.55-21.24 27.59-32.79 24.61-32.79 25.56-37.01 37.57-37.01 36.62-32.79 33.62-32.79 19.31-16.77 16.38-4.2 19.82-4.2 18.87 0 6.86 0 7.81-4.2 11.25-4.2 14.18-16.87 7.86-32.79 4.27-32.79ZM51.05 0L51.44-1.71Q49.8-0.61 48.15-0.09 46.51 0.44 44.75 0.44L44.75 0.44Q42.67 0.44 40.87-0.37 39.06-1.17 37.73-2.56 36.4-3.96 35.63-5.85 34.86-7.74 34.86-9.91L34.86-9.91Q34.86-13.45 36.11-16.41 37.35-19.36 39.49-21.48 41.62-23.61 44.47-24.78 47.31-25.95 50.51-25.95L50.51-25.95Q52.34-25.95 53.95-25.4 55.56-24.85 56.59-23.97L56.59-23.97 56.91-25.29 61.81-25.29 56.93-4.2 60.86-4.2 59.91 0 51.05 0ZM45.9-3.76L45.9-3.76Q46.8-3.76 47.74-3.98 48.68-4.2 49.53-4.54 50.39-4.88 51.14-5.33 51.9-5.79 52.49-6.27L52.49-6.27 55.64-19.8Q55-20.61 53.66-21.18 52.32-21.75 50.14-21.75L50.14-21.75Q48.26-21.75 46.43-20.98 44.6-20.21 43.16-18.76 41.72-17.31 40.82-15.2 39.91-13.09 39.91-10.4L39.91-10.4Q39.91-8.84 40.35-7.6 40.79-6.37 41.57-5.52 42.36-4.66 43.47-4.21 44.58-3.76 45.9-3.76ZM82.78-18.26L82.78-18.26Q82.76-19.21 82.4-19.95 82.05-20.68 81.43-21.18 80.81-21.68 79.96-21.94 79.12-22.19 78.14-22.19L78.14-22.19Q77.17-22.19 76.29-21.96 75.41-21.73 74.75-21.26 74.09-20.8 73.71-20.14 73.33-19.48 73.33-18.65L73.33-18.65Q73.33-17.68 73.96-17.03 74.58-16.38 75.92-15.84L75.92-15.84 80.63-14.16Q82.78-13.38 83.91-11.73 85.03-10.08 85.03-7.74L85.03-7.74Q85.03-5.64 84.26-4.05 83.49-2.47 82.12-1.39 80.76-0.32 78.86 0.22 76.97 0.76 74.73 0.76L74.73 0.76Q73.36 0.76 72.11 0.54 70.87 0.32 69.81-0.13 68.75-0.59 67.95-1.26 67.16-1.93 66.72-2.81L66.72-2.81 64.13-2.81 65.13-7.01 70.28-7.01Q70.16-6.05 70.53-5.32 70.89-4.59 71.58-4.09 72.26-3.59 73.2-3.34 74.14-3.1 75.19-3.1L75.19-3.1Q76.24-3.1 77.16-3.37 78.07-3.64 78.75-4.15 79.44-4.66 79.84-5.42 80.24-6.18 80.24-7.15L80.24-7.15Q80.24-8.08 79.58-8.85 78.93-9.62 77.53-10.11L77.53-10.11 73.04-11.74Q70.87-12.6 69.7-14.25 68.53-15.89 68.53-17.94L68.53-17.94Q68.53-19.75 69.16-21.24 69.79-22.73 71.04-23.8 72.29-24.88 74.16-25.46 76.04-26.05 78.54-26.05L78.54-26.05Q79.98-26.05 81.2-25.77 82.42-25.49 83.37-25 84.32-24.51 85-23.86 85.69-23.22 86.1-22.46L86.1-22.46 88.84-22.46 87.84-18.26 82.78-18.26ZM107.49-18.26L107.49-18.26Q107.46-19.21 107.11-19.95 106.76-20.68 106.13-21.18 105.51-21.68 104.67-21.94 103.83-22.19 102.85-22.19L102.85-22.19Q101.87-22.19 100.99-21.96 100.11-21.73 99.46-21.26 98.8-20.8 98.42-20.14 98.04-19.48 98.04-18.65L98.04-18.65Q98.04-17.68 98.66-17.03 99.28-16.38 100.63-15.84L100.63-15.84 105.34-14.16Q107.49-13.38 108.61-11.73 109.73-10.08 109.73-7.74L109.73-7.74Q109.73-5.64 108.96-4.05 108.2-2.47 106.83-1.39 105.46-0.32 103.57 0.22 101.68 0.76 99.43 0.76L99.43 0.76Q98.06 0.76 96.82 0.54 95.57 0.32 94.51-0.13 93.45-0.59 92.66-1.26 91.86-1.93 91.42-2.81L91.42-2.81 88.84-2.81 89.84-7.01 94.99-7.01Q94.87-6.05 95.23-5.32 95.6-4.59 96.28-4.09 96.97-3.59 97.91-3.34 98.85-3.1 99.89-3.1L99.89-3.1Q100.94-3.1 101.86-3.37 102.78-3.64 103.46-4.15 104.14-4.66 104.55-5.42 104.95-6.18 104.95-7.15L104.95-7.15Q104.95-8.08 104.29-8.85 103.63-9.62 102.24-10.11L102.24-10.11 97.75-11.74Q95.57-12.6 94.4-14.25 93.23-15.89 93.23-17.94L93.23-17.94Q93.23-19.75 93.86-21.24 94.5-22.73 95.74-23.8 96.99-24.88 98.87-25.46 100.75-26.05 103.24-26.05L103.24-26.05Q104.68-26.05 105.9-25.77 107.12-25.49 108.07-25 109.03-24.51 109.71-23.86 110.39-23.22 110.81-22.46L110.81-22.46 113.54-22.46 112.54-18.26 107.49-18.26ZM141.1-11.79L121.67-11.79Q121.65-11.45 121.62-11.21 121.6-10.96 121.6-10.74L121.6-10.74Q121.6-9.2 122.1-7.89 122.6-6.57 123.49-5.6 124.38-4.64 125.61-4.09 126.85-3.54 128.31-3.54L128.31-3.54Q130.26-3.54 132.03-4.33 133.8-5.13 135-6.64L135-6.64 138.61-4Q137.78-2.91 136.64-2.03 135.49-1.15 134.1-0.52 132.7 0.1 131.13 0.43 129.56 0.76 127.92 0.76L127.92 0.76Q125.58 0.76 123.54-0.02 121.5-0.81 119.97-2.29 118.45-3.78 117.58-5.94 116.71-8.11 116.71-10.84L116.71-10.84Q116.71-13.99 117.82-16.76 118.94-19.53 120.9-21.59 122.87-23.66 125.55-24.85 128.24-26.05 131.36-26.05L131.36-26.05Q133.78-26.05 135.67-25.23 137.56-24.41 138.88-23.07 140.2-21.73 140.88-19.97 141.57-18.21 141.57-16.36L141.57-16.36Q141.57-15.11 141.43-13.95 141.3-12.79 141.1-11.79L141.1-11.79ZM130.7-21.9L130.7-21.9Q129.24-21.9 127.96-21.44 126.67-20.97 125.62-20.14 124.57-19.31 123.77-18.19 122.96-17.07 122.45-15.75L122.45-15.75 136.86-15.75Q136.88-17.26 136.45-18.42 136.03-19.58 135.21-20.35 134.39-21.12 133.24-21.51 132.09-21.9 130.7-21.9ZM167.49-25.15L165.88-18.31 160.93-18.31 161.63-21.29Q159.26-21.29 157.6-20.08 155.94-18.87 154.87-16.89L154.87-16.89 151.94-4.2 156.14-4.2 155.19 0 146.03 0 150.92-21.09 146.08-21.09 147.08-25.29 156.63-25.29 155.82-21.83Q156.51-22.61 157.29-23.28 158.07-23.95 158.94-24.44 159.8-24.93 160.74-25.21 161.68-25.49 162.63-25.49L162.63-25.49Q163.51-25.49 164.15-25.46 164.78-25.44 165.5-25.38 166.22-25.32 167.49-25.15L167.49-25.15ZM175.74 0L176.69-4.2 180.11-4.2 186.75-33.01 177.79-33.01 176.5-27.25 171.49-27.25 173.74-37.01 206.75-37.01 204.48-27.25 199.5-27.25 200.79-33.01 191.81-33.01 185.21-4.2 188.68-4.2 187.73 0 175.74 0ZM215.31 0L215.71-1.71Q214.07-0.61 212.42-0.09 210.77 0.44 209.02 0.44L209.02 0.44Q206.94 0.44 205.13-0.37 203.33-1.17 202-2.56 200.67-3.96 199.9-5.85 199.13-7.74 199.13-9.91L199.13-9.91Q199.13-13.45 200.37-16.41 201.62-19.36 203.75-21.48 205.89-23.61 208.73-24.78 211.58-25.95 214.78-25.95L214.78-25.95Q216.61-25.95 218.22-25.4 219.83-24.85 220.86-23.97L220.86-23.97 221.17-25.29 226.08-25.29 221.2-4.2 225.13-4.2 224.18 0 215.31 0ZM210.16-3.76L210.16-3.76Q211.07-3.76 212.01-3.98 212.95-4.2 213.8-4.54 214.66-4.88 215.41-5.33 216.17-5.79 216.75-6.27L216.75-6.27 219.9-19.8Q219.27-20.61 217.93-21.18 216.58-21.75 214.41-21.75L214.41-21.75Q212.53-21.75 210.7-20.98 208.87-20.21 207.43-18.76 205.99-17.31 205.09-15.2 204.18-13.09 204.18-10.4L204.18-10.4Q204.18-8.84 204.62-7.6 205.06-6.37 205.84-5.52 206.62-4.66 207.73-4.21 208.84-3.76 210.16-3.76ZM247.98 0L251.62-15.65Q252.3-18.53 251.16-20 250.03-21.46 247.37-21.46L247.37-21.46Q245.73-21.46 243.97-20.75 242.22-20.04 240.61-18.87L240.61-18.87 236.26 0 231.33 0 239.09-33.79 234.21-33.79 235.21-37.99 245.02-37.99 241.48-22.71Q243.27-24.1 245.29-24.93 247.32-25.76 249.47-25.76L249.47-25.76Q251.42-25.76 253-25.17 254.57-24.58 255.56-23.39 256.55-22.19 256.88-20.41 257.21-18.63 256.67-16.26L256.67-16.26 253.89-4.2 257.48-4.2 256.52 0 247.98 0ZM279.42 0L279.81-1.71Q278.18-0.61 276.53-0.09 274.88 0.44 273.12 0.44L273.12 0.44Q271.05 0.44 269.24-0.37 267.43-1.17 266.1-2.56 264.77-3.96 264-5.85 263.23-7.74 263.23-9.91L263.23-9.91Q263.23-13.45 264.48-16.41 265.72-19.36 267.86-21.48 270-23.61 272.84-24.78 275.69-25.95 278.88-25.95L278.88-25.95Q280.71-25.95 282.33-25.4 283.94-24.85 284.96-23.97L284.96-23.97 285.28-25.29 290.19-25.29 285.3-4.2 289.24-4.2 288.28 0 279.42 0ZM274.27-3.76L274.27-3.76Q275.17-3.76 276.11-3.98 277.05-4.2 277.91-4.54 278.76-4.88 279.52-5.33 280.28-5.79 280.86-6.27L280.86-6.27 284.01-19.8Q283.38-20.61 282.03-21.18 280.69-21.75 278.52-21.75L278.52-21.75Q276.64-21.75 274.81-20.98 272.98-20.21 271.54-18.76 270.09-17.31 269.19-15.2 268.29-13.09 268.29-10.4L268.29-10.4Q268.29-8.84 268.73-7.6 269.17-6.37 269.95-5.52 270.73-4.66 271.84-4.21 272.95-3.76 274.27-3.76Z" opacity="1" transform="matrix(1,0,0,1,0,0)" fill="#cfc6cc" class="slogan-text-1" data-fill-palette-color="secondary" id="text-1"></path></svg></g></svg></g></svg></g></svg></g><g transform="matrix(1,0,0,1,0,7.896330270594234)"><svg viewBox="0 0 244.43135999999998 175.13380948453607" height="175.13380948453607" width="244.43135999999998"><g><svg xmlns="http://www.w3.org/2000/svg" xmlns:xlink="http://www.w3.org/1999/xlink" version="1.1" x="0" y="0" viewBox="1.5 15.2 97 69.5" enable-background="new 0 0 100 100" xml:space="preserve" height="175.13380948453607" width="244.43135999999998" class="icon-icon-0" data-fill-palette-color="accent" id="icon-0"><path d="M7.2 84.7H92.7C95.9 84.7 98.5 82.1 98.5 78.9V76.4C98.5 75.9 98.3 75.4 98 75L93.7 69.7C93 68.8 92.6 67.8 92.6 66.7V23.7C92.6 19 88.8 15.2 84.1 15.2H15.9C11.2 15.2 7.4 19 7.4 23.7V66.6C7.4 67.7 7 68.8 6.3 69.6L2 75.1C1.7 75.5 1.5 76 1.5 76.5V79C1.5 82.2 4.1 84.7 7.2 84.7M59.2 76.4C59.2 78 57.9 79.3 56.3 79.3H43.8C42.2 79.3 40.9 78 40.9 76.4V75.8H59.3V76.4zM15.9 60.8V23.7H84.1V67.3H15.9zM54.9 32.9L58.8 35.1 45.1 59.1 41.2 56.9zM38.5 38L30.5 46 38.5 54 35.3 57.2 27.3 49.2 24.2 46 27.4 42.8 35.4 34.8zM72.6 42.8L75.8 46 72.6 49.2 64.6 57.2 61.5 54 69.5 46 61.5 38 64.7 34.8z" fill="#f8f6f6" data-fill-palette-color="accent"></path></svg></g></svg></g></svg></g><defs></defs></svg><rect width="395.52" height="106.05123589684534" fill="none" stroke="none" visibility="hidden"></rect></g></svg></g></svg>